<?xml version="1.0" standalone="no"?>
<!DOCTYPE svg PUBLIC "-//W3C//DTD SVG 20010904//EN"
 "http://www.w3.org/TR/2001/REC-SVG-20010904/DTD/svg10.dtd">
<svg version="1.0" xmlns="http://www.w3.org/2000/svg"
 width="500.000000pt" height="500.000000pt" viewBox="0 0 500.000000 500.000000"
 preserveAspectRatio="xMidYMid meet">
<metadata>
Created by potrace 1.11, written by Peter Selinger 2001-2013
</metadata>
<g transform="translate(0.000000,500.000000) scale(0.100000,-0.100000)"
fill="#000000" stroke="none">
<path d="M2325 4994 c-406 -33 -812 -166 -1148 -376 -369 -230 -686 -571 -890
-958 -136 -257 -222 -529 -269 -850 -17 -119 -14 -496 5 -635 47 -338 162
-672 327 -948 512 -859 1485 -1333 2470 -1202 828 109 1539 614 1910 1355 242
483 319 1000 229 1538 -164 984 -911 1781 -1886 2013 -201 48 -562 78 -748 63z
m690 -909 c109 -36 295 -119 295 -132 0 -4 -17 -19 -38 -33 -20 -14 -93 -80
-161 -148 l-123 -124 -60 23 -60 22 6 56 c6 51 -2 174 -20 325 l-7 58 33 -7
c19 -4 79 -22 135 -40z m-1245 -148 c-16 -40 -38 -106 -50 -147 l-20 -75 5 55
c7 81 44 213 62 228 31 23 31 12 3 -61z m-146 -88 c-22 -97 -23 -323 -2 -396
15 -51 14 -52 -10 -77 l-25 -25 -68 137 c-37 75 -84 162 -103 192 l-36 55 47
43 c47 42 205 153 211 148 1 -2 -5 -36 -14 -77z m1804 35 c23 -16 23 -16 -40
-63 -35 -27 -109 -92 -165 -145 -93 -89 -104 -96 -122 -84 -12 7 -21 15 -21
18 0 25 286 288 315 290 6 0 21 -7 33 -16z m-1731 -211 c-3 -10 -5 -4 -5 12 0
17 2 24 5 18 2 -7 2 -21 0 -30z m1113 -491 c0 -196 64 -320 263 -508 62 -59
124 -106 181 -138 47 -27 86 -52 86 -56 0 -39 -25 -178 -41 -229 -33 -103
-114 -251 -128 -235 -5 5 -25 59 -45 119 -78 231 -215 472 -338 592 -126 125
-199 156 -363 157 -83 0 -131 -6 -195 -23 -132 -35 -271 -88 -417 -160 -149
-75 -146 -76 -112 35 27 87 69 172 124 250 63 88 61 87 130 54 99 -47 198 -63
344 -57 142 6 212 25 296 81 65 43 139 120 167 173 37 70 48 57 48 -55z m91
-4 c-9 -31 -9 -31 -10 -6 -1 30 11 67 16 51 2 -6 0 -26 -6 -45z m1227 -329
c11 -52 22 -114 24 -138 l3 -44 -70 -18 c-73 -18 -276 -88 -314 -108 -14 -8
-21 -8 -21 -1 0 5 4 10 9 10 4 0 39 28 76 63 83 75 167 187 221 290 44 87 42
89 72 -54z m-1553 -77 c35 -19 36 -21 10 -14 -55 13 -198 5 -282 -17 -172 -45
-374 -128 -551 -229 -41 -23 -76 -42 -78 -42 -2 0 -4 14 -4 30 0 29 6 33 173
115 171 83 327 144 442 170 91 21 240 14 290 -13z m1593 -237 c-3 -25 -9 -29
-73 -45 -81 -21 -181 -58 -278 -102 -37 -17 -69 -29 -72 -27 -2 3 -2 21 2 41
5 32 11 39 54 57 149 64 347 125 362 111 5 -4 7 -20 5 -35z m-3228 -76 c41
-22 57 -24 183 -24 l137 0 0 -32 c0 -28 -8 -38 -82 -90 -87 -61 -243 -188
-267 -216 -7 -9 -17 -17 -21 -17 -13 0 -49 219 -57 339 l-6 114 34 -25 c19
-14 54 -36 79 -49z m340 -216 c-1 -24 -16 -39 -95 -97 -53 -38 -131 -103 -175
-143 -78 -73 -79 -74 -86 -48 -5 21 0 33 22 57 68 71 303 258 326 258 4 0 8
-12 8 -27z m2165 -644 c48 -65 179 -186 230 -212 l47 -23 -93 -88 c-52 -49
-141 -120 -199 -158 -122 -82 -117 -85 -120 62 -1 47 -6 110 -10 140 -5 30
-12 87 -16 125 l-7 71 64 62 c35 34 66 62 69 62 3 0 19 -19 35 -41z"/>
</g>
</svg>
